<?xml version="1.0" standalone="no"?><!DOCTYPE svg PUBLIC "-//W3C//DTD SVG 1.1//EN" "http://www.w3.org/Graphics/SVG/1.1/DTD/svg11.dtd"><svg width="100%" height="100%" viewBox="0 0 1708 600" version="1.1" xmlns="http://www.w3.org/2000/svg" xmlns:xlink="http://www.w3.org/1999/xlink" xml:space="preserve" style="fill-rule:evenodd;clip-rule:evenodd;stroke-linejoin:round;stroke-miterlimit:1.41421;"><clipPath id="_clip1"><rect id="Artboard1" x="0" y="0" width="1708" height="600"/></clipPath><g clip-path="url(#_clip1)"><g><path d="M1771,216.593l0,158.133l-6.444,6.444l-1829.11,0l-6.444,-6.444l0,-158.133l6.444,-6.444l1829.11,0l6.444,6.444ZM-60,221.149l0,149.021l1820,0l0,-149.021l-1820,0Z" style="fill:#d7d7d7;"/><path d="M189.25,218.899l0,153.521l-153.521,0l0,-153.521l153.521,0ZM40.229,367.92l144.521,0l0,-144.521l-144.521,0l0,144.521Z" style="fill:#919191;"/><path d="M1678.27,218.899l0,153.521l-153.521,0l0,-153.521l153.521,0ZM1529.25,367.92l144.521,0l0,-144.521l-144.521,0l0,144.521Z" style="fill:#919191;"/><path d="M1827.27,218.899l0,153.521l-153.521,0l0,-153.521l153.521,0ZM1678.25,367.92l144.521,0l0,-144.521l-144.521,0l0,144.521Z" style="fill:#919191;"/><path d="M40.25,218.899l0,153.521l-153.521,0l0,-153.521l153.521,0ZM-108.771,367.92l144.521,0l0,-144.521l-144.521,0l0,144.521Z" style="fill:#919191;"/></g><path id="Tape" d="M1538,381.17l-1362,0l0,-171.021l1362,0l0,171.021ZM187,221.149l0,149.021l1340,0l0,-149.021l-1340,0Z" style="fill:#009e6d;"/><path d="M1527,370.17l-149.021,0l0,-149.021l149.021,0l0,149.021ZM1388.98,232.149l0,127.021l127.021,0l0,-127.021l-127.021,0Z" style="fill:#ff0057;"/><g id="Cells"><path d="M338.271,218.899l0,153.521l-153.521,0l0,-153.521l153.521,0ZM189.25,367.92l144.521,0l0,-144.521l-144.521,0l0,144.521Z" style="fill:#000;"/><path d="M487.292,372.42l-153.521,0l0,-153.521l153.521,0l0,153.521ZM338.271,367.92l144.521,0l0,-144.521l-144.521,0l0,144.521Z" style="fill:#000;"/><path d="M636.143,372.42l-153.521,0l0,-153.521l153.521,0l0,153.521ZM487.122,367.92l144.521,0l0,-144.521l-144.521,0l0,144.521Z" style="fill:#000;"/><path d="M784.824,372.42l-153.521,0l0,-153.521l153.521,0l0,153.521ZM635.803,367.92l144.521,0l0,-144.521l-144.521,0l0,144.521Z" style="fill:#000;"/><path d="M933.845,372.42l-153.521,0l0,-153.521l153.521,0l0,153.521ZM784.824,367.92l144.521,0l0,-144.521l-144.521,0l0,144.521Z" style="fill:#000;"/><path d="M1082.7,372.42l-153.521,0l0,-153.521l153.521,0l0,153.521ZM933.676,367.92l144.521,0l0,-144.521l-144.521,0l0,144.521Z" style="fill:#000;"/><path d="M1231.38,372.42l-153.521,0l0,-153.521l153.521,0l0,153.521ZM1082.36,367.92l144.521,0l0,-144.521l-144.521,0l0,144.521Z" style="fill:#000;"/><path d="M1380.4,372.42l-153.521,0l0,-153.521l153.521,0l0,153.521ZM1231.38,367.92l144.521,0l0,-144.521l-144.521,0l0,144.521Z" style="fill:#000;"/><path d="M1529.25,218.899l0,153.521l-153.521,0l0,-153.521l153.521,0ZM1380.23,367.92l144.521,0l0,-144.521l-144.521,0l0,144.521Z" style="fill:#000;"/></g><text x="176px" y="196.984px" style="font-family:'Bebas';font-size:48px;fill:#009e6d;">T<tspan x="195.432px 224.136px 249.534px " y="196.984px 196.984px 196.984px ">ape</tspan></text><text x="1381.87px" y="195.148px" style="font-family:'Bebas';font-size:48px;fill:#ff0057;">C<tspan x="1407.58px 1430.35px " y="195.148px 195.148px ">el</tspan>l</text><g><text x="107.49px" y="313.421px" style="font-family:'Bebas';font-size:48px;fill:#ccc;">B</text><text x="1595.42px" y="313.421px" style="font-family:'Bebas';font-size:48px;fill:#ccc;">B</text></g><g><text x="247.953px" y="313.421px" style="font-family:'Bebas';font-size:48px;fill:#000;">1</text><text x="399.953px" y="313.421px" style="font-family:'Bebas';font-size:48px;fill:#000;">0</text><text x="551.953px" y="313.421px" style="font-family:'Bebas';font-size:48px;fill:#000;">0</text><text x="698.953px" y="313.421px" style="font-family:'Bebas';font-size:48px;fill:#000;">1</text><text x="845.953px" y="313.421px" style="font-family:'Bebas';font-size:48px;fill:#000;">1</text><text x="992.953px" y="313.421px" style="font-family:'Bebas';font-size:48px;fill:#000;">0</text><text x="1141.95px" y="313.421px" style="font-family:'Bebas';font-size:48px;fill:#000;">1</text><text x="1290.95px" y="313.421px" style="font-family:'Bebas';font-size:48px;fill:#000;">0</text><text x="1440.95px" y="313.421px" style="font-family:'Bebas';font-size:48px;fill:#000;">1</text></g></g></svg>