<?xml version="1.0" standalone="no"?><!DOCTYPE svg PUBLIC "-//W3C//DTD SVG 1.1//EN" "http://www.w3.org/Graphics/SVG/1.1/DTD/svg11.dtd"><svg width="100%" height="100%" viewBox="0 0 500 190" version="1.1" xmlns="http://www.w3.org/2000/svg" xmlns:xlink="http://www.w3.org/1999/xlink" xml:space="preserve" style="fill-rule:evenodd;clip-rule:evenodd;stroke-linecap:square;stroke-miterlimit:1.41421;"><clipPath id="_clip1"><rect id="Artboard2" x="0" y="0" width="500" height="190"/></clipPath><g clip-path="url(#_clip1)"><g><path d="M517.886,69.258l0,48.227l-3.515,3.515l-533.264,0l-3.515,-3.515l0,-48.227l3.515,-3.514l533.264,0l3.515,3.514ZM-16.408,71.744l0,43.256l528.294,0l0,-43.256l-528.294,0Z" style="fill:#d7d7d7;"/><rect x="12.033" y="71.744" width="43.256" height="43.256" style="fill:none;stroke-width:2.5px;stroke:#919191;"/><rect x="444.252" y="71.744" width="43.256" height="43.256" style="fill:none;stroke-width:2.5px;stroke:#919191;"/><rect x="487.503" y="71.744" width="43.256" height="43.256" style="fill:none;stroke-width:2.5px;stroke:#919191;"/><rect x="-31.218" y="71.744" width="43.256" height="43.256" style="fill:none;stroke-width:2.5px;stroke:#919191;"/></g><path d="M444.252,115l-43.256,0l0,-43.256l43.256,0l0,43.256ZM406.996,77.744l0,31.256l31.256,0l0,-31.256l-31.256,0Z" style="fill:#ff0057;"/><path id="Tape" d="M450.252,121l-400.963,0l0,-55.256l400.963,0l0,55.256ZM55.289,71.744l0,43.256l388.963,0l0,-43.256l-388.963,0Z" style="fill:#009e6d;"/><g id="Cells"><rect x="55.289" y="71.744" width="43.256" height="43.256" style="fill:none;stroke-width:2.5px;stroke:#000;"/><rect x="98.546" y="71.744" width="43.256" height="43.256" style="fill:none;stroke-width:2.5px;stroke:#000;"/><rect x="141.753" y="71.744" width="43.256" height="43.256" style="fill:none;stroke-width:2.5px;stroke:#000;"/><rect x="184.911" y="71.744" width="43.256" height="43.256" style="fill:none;stroke-width:2.5px;stroke:#000;"/><rect x="228.167" y="71.744" width="43.256" height="43.256" style="fill:none;stroke-width:2.5px;stroke:#000;"/><rect x="271.374" y="71.744" width="43.256" height="43.256" style="fill:none;stroke-width:2.5px;stroke:#000;"/><rect x="314.532" y="71.744" width="43.256" height="43.256" style="fill:none;stroke-width:2.5px;stroke:#000;"/><rect x="357.789" y="71.744" width="43.256" height="43.256" style="fill:none;stroke-width:2.5px;stroke:#000;"/><rect x="400.996" y="71.744" width="43.256" height="43.256" style="fill:none;stroke-width:2.5px;stroke:#000;"/></g><g><text x="32.21px" y="98.527px" style="font-family:'Bebas';font-size:13.933px;fill:#ccc;">B</text><text x="464.112px" y="98.527px" style="font-family:'Bebas';font-size:13.933px;fill:#ccc;">B</text></g><g><text x="72.982px" y="98.527px" style="font-family:'Bebas';font-size:13.933px;fill:#000;">1</text><text x="117.103px" y="98.527px" style="font-family:'Bebas';font-size:13.933px;fill:#000;">0</text><text x="161.224px" y="98.527px" style="font-family:'Bebas';font-size:13.933px;fill:#000;">0</text><text x="203.894px" y="98.527px" style="font-family:'Bebas';font-size:13.933px;fill:#000;">1</text><text x="246.564px" y="98.527px" style="font-family:'Bebas';font-size:13.933px;fill:#000;">1</text><text x="289.234px" y="98.527px" style="font-family:'Bebas';font-size:13.933px;fill:#000;">0</text><text x="332.484px" y="98.527px" style="font-family:'Bebas';font-size:13.933px;fill:#000;">1</text><text x="375.735px" y="98.527px" style="font-family:'Bebas';font-size:13.933px;fill:#000;">0</text><text x="419.275px" y="98.527px" style="font-family:'Bebas';font-size:13.933px;fill:#000;">1</text></g><text x="52.096px" y="64.729px" style="font-family:'Bebas';font-size:13.933px;fill:#009e6d;">T<tspan x="57.737px 66.069px " y="64.729px 64.729px ">ap</tspan>e</text><text x="402.127px" y="64.196px" style="font-family:'Bebas';font-size:13.933px;fill:#ff0057;">C<tspan x="409.588px 416.198px " y="64.196px 64.196px ">el</tspan>l</text></g></svg>